<svg width="42" height="42" viewBox="0 0 42 42" fill="none" xmlns="http://www.w3.org/2000/svg">
<circle cx="21" cy="21" r="20.2329" fill="#627FE3" fill-opacity="0.15"/>
<circle cx="21" cy="21" r="20.2329" stroke="#C4C4C4" stroke-width="1.53425"/>
<circle cx="21" cy="21" r="20.2329" stroke="url(#paint0_linear_6042_1014)" stroke-width="1.53425"/>
<g opacity="0.1">
<path d="M13.237 12.6327H16.8817L17.2033 10.1672H19.1329L19.2937 12.6327H21.2232V10.1672H23.1528L23.3672 12.6327H24.064C29.038 14.6052 27.3514 18.5286 25.8864 20.2438C31.4607 23.1381 27.8159 29.5164 25.2968 29.302L23.0456 29.5164V31.8748H21.0624V29.5164H19.1865V31.8748H17.1497V29.5164H13.0762V26.5149H15.0057V15.5807H13.237V12.6327Z" fill="#C4C4C4"/>
<path d="M13.237 12.6327H16.8817L17.2033 10.1672H19.1329L19.2937 12.6327H21.2232V10.1672H23.1528L23.3672 12.6327H24.064C29.038 14.6052 27.3514 18.5286 25.8864 20.2438C31.4607 23.1381 27.8159 29.5164 25.2968 29.302L23.0456 29.5164V31.8748H21.0624V29.5164H19.1865V31.8748H17.1497V29.5164H13.0762V26.5149H15.0057V15.5807H13.237V12.6327Z" fill="url(#paint1_linear_6042_1014)"/>
</g>
<mask id="path-3-outside-1_6042_1014" maskUnits="userSpaceOnUse" x="11.7539" y="8.68481" width="18" height="24" fill="black">
<rect fill="white" x="11.7539" y="8.68481" width="18" height="24"/>
<path fill-rule="evenodd" clip-rule="evenodd" d="M16.8704 9.81278C16.7996 9.88315 16.7406 9.99453 16.7395 10.0604C16.7383 10.1261 16.7392 10.6189 16.7415 11.1554L16.7456 12.1308L14.8851 12.1457L13.0246 12.1607L12.8892 12.287L12.7539 12.4134V14.1153V15.8172L12.8892 15.9436C13.0192 16.0651 13.0574 16.0706 13.8861 16.0865L14.7477 16.1031V21.0478V25.9926L13.8861 26.0091C13.0574 26.025 13.0192 26.0305 12.8892 26.152L12.7539 26.2784V27.9803V29.6822L12.8892 29.8086L13.0246 29.935L14.8851 29.9499L16.7456 29.9648L16.7415 30.9403C16.7392 31.4767 16.7383 31.9695 16.7395 32.0353C16.7406 32.1011 16.7996 32.2125 16.8704 32.2829L16.9991 32.4108H18.1792C19.3506 32.4108 19.3603 32.41 19.5064 32.2851L19.6536 32.1594L19.6697 31.0602L19.6857 29.961H20.2075H20.7292V31.058C20.7292 32.1532 20.7295 32.1552 20.8581 32.2829L20.9868 32.4108H22.147C22.8423 32.4108 23.3476 32.3893 23.4081 32.3572C23.6334 32.2374 23.6675 32.0574 23.6675 30.9874V29.9758L24.3019 29.9389C25.7729 29.8534 26.488 29.5734 27.419 28.769C28.0993 28.1811 28.7363 27.1128 29.0125 26.0965C29.1388 25.6315 29.1521 25.4939 29.1549 24.6195C29.1577 23.7668 29.1437 23.6009 29.034 23.1861C28.6489 21.7289 28.1035 20.6351 26.8642 20.0332L26.4143 19.8147L26.6453 19.5842C27.8526 18.3801 28.1413 16.648 27.419 14.9427C26.8473 13.593 25.5548 12.5506 24.0759 12.2469L23.6675 12.163V11.1298C23.6675 10.0368 23.6343 9.85875 23.4081 9.7385C23.3476 9.70634 22.8423 9.68481 22.147 9.68481H20.9868L20.8581 9.81278C20.7295 9.94048 20.7292 9.94246 20.7292 11.0377V12.1346H20.2075H19.6857L19.6697 11.0354L19.6536 9.93621L19.5064 9.81054C19.3603 9.6857 19.3506 9.68481 18.1792 9.68481H16.9991L16.8704 9.81278ZM18.7354 11.7346V12.8462L18.8707 12.9726C19.0032 13.0964 19.0274 13.0993 20.0644 13.1157C20.7498 13.1266 21.1936 13.1116 21.3236 13.0733C21.6396 12.9802 21.6737 12.8408 21.6737 11.6411V10.623H22.1984H22.7231V11.7346C22.7231 13.1024 22.6967 13.0536 23.4745 13.1267C24.4019 13.2139 25.0505 13.5105 25.6926 14.1412C26.1752 14.6151 26.4787 15.0903 26.6918 15.7051C26.817 16.0667 26.8366 16.2053 26.8391 16.7476C26.8415 17.2683 26.8219 17.4306 26.7224 17.7167C26.5696 18.1556 26.3312 18.5299 25.9739 18.8918C25.8649 19.0021 25.7092 19.1351 25.5545 19.2548C25.2346 19.5026 24.7153 19.664 24.7181 20.0687C24.7201 20.3708 24.8531 20.4738 25.3501 20.5583C25.927 20.6563 26.2423 20.7596 26.6524 20.9849C27.5561 21.4814 28.0001 22.61 28.1863 23.7495C28.2853 24.3552 28.2532 25.179 28.1086 25.7465C27.7146 27.2926 26.9859 28.3238 25.6162 28.769C25.138 28.9244 25.0527 28.9351 24.0518 28.9653C23.0257 28.9964 22.9891 29.0012 22.8581 29.1234L22.7231 29.2495V30.361V31.4726H22.1984H21.6737V30.451C21.6737 29.263 21.6363 29.1144 21.3137 29.0194C21.1955 28.9846 20.7194 28.9696 20.0644 28.98C19.0274 28.9964 19.0032 28.9993 18.8707 29.1231L18.7354 29.2495V30.361V31.4726H18.2107H17.686V30.4545C17.686 29.2529 17.6519 29.1138 17.3361 29.0267C17.213 28.9928 16.4688 28.9711 15.4167 28.971L13.6984 28.9707V27.9803V26.99L14.4198 26.9896C15.3174 26.9893 15.5167 26.9413 15.6177 26.7013C15.7291 26.4365 15.7291 15.6592 15.6177 15.3943C15.5167 15.1543 15.3174 15.1064 14.4198 15.106L13.6984 15.1057V14.1153V13.125L15.4167 13.1247C16.4688 13.1245 17.213 13.1029 17.3361 13.069C17.6519 12.9819 17.686 12.8427 17.686 11.6411V10.623H18.2107H18.7354V11.7346ZM18.4993 15.1662C18.2085 15.325 18.2131 15.2901 18.2119 17.338L18.2109 19.0153C18.2108 19.1537 18.2659 19.2864 18.3641 19.3839C18.4623 19.4815 18.5952 19.5362 18.7336 19.5362H20.0224C21.6128 19.5362 21.9078 19.5027 22.3681 19.2694C23.2953 18.7995 23.752 17.5966 23.3848 16.5917C23.0803 15.7584 22.4754 15.2864 21.5519 15.1613C21.0012 15.0867 18.6379 15.0905 18.4993 15.1662ZM21.8595 16.2194C22.3445 16.4438 22.602 16.9006 22.552 17.4482C22.5175 17.8263 22.3534 18.1324 22.0869 18.3158C21.7169 18.5706 21.5738 18.5933 20.3226 18.5957L19.1552 18.598V17.347V16.0961L20.3751 16.0966C21.5445 16.097 21.606 16.1022 21.8595 16.2194ZM18.3673 21.7183C18.2671 21.8178 18.2107 21.9532 18.2107 22.0944V24.2529C18.2107 25.7849 18.23 26.6676 18.2648 26.7322C18.3961 26.976 18.5117 26.99 20.408 26.99C22.5419 26.99 22.857 26.9573 23.4385 26.6761C24.3631 26.2289 24.8722 25.3681 24.8737 24.2499C24.8753 23.054 24.2457 22.1376 23.1253 21.7047C22.8727 21.6071 22.7069 21.5987 20.6891 21.5814L18.7445 21.5647C18.6033 21.5634 18.4674 21.6188 18.3673 21.7183ZM22.9939 22.6783C23.336 22.8452 23.6305 23.1454 23.7915 23.4913C23.8825 23.6868 23.9036 23.8304 23.9033 24.2534C23.9028 24.902 23.7874 25.1942 23.3813 25.5758C22.9474 25.9835 22.8512 25.9996 20.8509 25.9996H19.1552V24.2503V22.501L20.926 22.5172L22.6969 22.5334L22.9939 22.6783Z"/>
</mask>
<path fill-rule="evenodd" clip-rule="evenodd" d="M16.8704 9.81278C16.7996 9.88315 16.7406 9.99453 16.7395 10.0604C16.7383 10.1261 16.7392 10.6189 16.7415 11.1554L16.7456 12.1308L14.8851 12.1457L13.0246 12.1607L12.8892 12.287L12.7539 12.4134V14.1153V15.8172L12.8892 15.9436C13.0192 16.0651 13.0574 16.0706 13.8861 16.0865L14.7477 16.1031V21.0478V25.9926L13.8861 26.0091C13.0574 26.025 13.0192 26.0305 12.8892 26.152L12.7539 26.2784V27.9803V29.6822L12.8892 29.8086L13.0246 29.935L14.8851 29.9499L16.7456 29.9648L16.7415 30.9403C16.7392 31.4767 16.7383 31.9695 16.7395 32.0353C16.7406 32.1011 16.7996 32.2125 16.8704 32.2829L16.9991 32.4108H18.1792C19.3506 32.4108 19.3603 32.41 19.5064 32.2851L19.6536 32.1594L19.6697 31.0602L19.6857 29.961H20.2075H20.7292V31.058C20.7292 32.1532 20.7295 32.1552 20.8581 32.2829L20.9868 32.4108H22.147C22.8423 32.4108 23.3476 32.3893 23.4081 32.3572C23.6334 32.2374 23.6675 32.0574 23.6675 30.9874V29.9758L24.3019 29.9389C25.7729 29.8534 26.488 29.5734 27.419 28.769C28.0993 28.1811 28.7363 27.1128 29.0125 26.0965C29.1388 25.6315 29.1521 25.4939 29.1549 24.6195C29.1577 23.7668 29.1437 23.6009 29.034 23.1861C28.6489 21.7289 28.1035 20.6351 26.8642 20.0332L26.4143 19.8147L26.6453 19.5842C27.8526 18.3801 28.1413 16.648 27.419 14.9427C26.8473 13.593 25.5548 12.5506 24.0759 12.2469L23.6675 12.163V11.1298C23.6675 10.0368 23.6343 9.85875 23.4081 9.7385C23.3476 9.70634 22.8423 9.68481 22.147 9.68481H20.9868L20.8581 9.81278C20.7295 9.94048 20.7292 9.94246 20.7292 11.0377V12.1346H20.2075H19.6857L19.6697 11.0354L19.6536 9.93621L19.5064 9.81054C19.3603 9.6857 19.3506 9.68481 18.1792 9.68481H16.9991L16.8704 9.81278ZM18.7354 11.7346V12.8462L18.8707 12.9726C19.0032 13.0964 19.0274 13.0993 20.0644 13.1157C20.7498 13.1266 21.1936 13.1116 21.3236 13.0733C21.6396 12.9802 21.6737 12.8408 21.6737 11.6411V10.623H22.1984H22.7231V11.7346C22.7231 13.1024 22.6967 13.0536 23.4745 13.1267C24.4019 13.2139 25.0505 13.5105 25.6926 14.1412C26.1752 14.6151 26.4787 15.0903 26.6918 15.7051C26.817 16.0667 26.8366 16.2053 26.8391 16.7476C26.8415 17.2683 26.8219 17.4306 26.7224 17.7167C26.5696 18.1556 26.3312 18.5299 25.9739 18.8918C25.8649 19.0021 25.7092 19.1351 25.5545 19.2548C25.2346 19.5026 24.7153 19.664 24.7181 20.0687C24.7201 20.3708 24.8531 20.4738 25.3501 20.5583C25.927 20.6563 26.2423 20.7596 26.6524 20.9849C27.5561 21.4814 28.0001 22.61 28.1863 23.7495C28.2853 24.3552 28.2532 25.179 28.1086 25.7465C27.7146 27.2926 26.9859 28.3238 25.6162 28.769C25.138 28.9244 25.0527 28.9351 24.0518 28.9653C23.0257 28.9964 22.9891 29.0012 22.8581 29.1234L22.7231 29.2495V30.361V31.4726H22.1984H21.6737V30.451C21.6737 29.263 21.6363 29.1144 21.3137 29.0194C21.1955 28.9846 20.7194 28.9696 20.0644 28.98C19.0274 28.9964 19.0032 28.9993 18.8707 29.1231L18.7354 29.2495V30.361V31.4726H18.2107H17.686V30.4545C17.686 29.2529 17.6519 29.1138 17.3361 29.0267C17.213 28.9928 16.4688 28.9711 15.4167 28.971L13.6984 28.9707V27.9803V26.99L14.4198 26.9896C15.3174 26.9893 15.5167 26.9413 15.6177 26.7013C15.7291 26.4365 15.7291 15.6592 15.6177 15.3943C15.5167 15.1543 15.3174 15.1064 14.4198 15.106L13.6984 15.1057V14.1153V13.125L15.4167 13.1247C16.4688 13.1245 17.213 13.1029 17.3361 13.069C17.6519 12.9819 17.686 12.8427 17.686 11.6411V10.623H18.2107H18.7354V11.7346ZM18.4993 15.1662C18.2085 15.325 18.2131 15.2901 18.2119 17.338L18.2109 19.0153C18.2108 19.1537 18.2659 19.2864 18.3641 19.3839C18.4623 19.4815 18.5952 19.5362 18.7336 19.5362H20.0224C21.6128 19.5362 21.9078 19.5027 22.3681 19.2694C23.2953 18.7995 23.752 17.5966 23.3848 16.5917C23.0803 15.7584 22.4754 15.2864 21.5519 15.1613C21.0012 15.0867 18.6379 15.0905 18.4993 15.1662ZM21.8595 16.2194C22.3445 16.4438 22.602 16.9006 22.552 17.4482C22.5175 17.8263 22.3534 18.1324 22.0869 18.3158C21.7169 18.5706 21.5738 18.5933 20.3226 18.5957L19.1552 18.598V17.347V16.0961L20.3751 16.0966C21.5445 16.097 21.606 16.1022 21.8595 16.2194ZM18.3673 21.7183C18.2671 21.8178 18.2107 21.9532 18.2107 22.0944V24.2529C18.2107 25.7849 18.23 26.6676 18.2648 26.7322C18.3961 26.976 18.5117 26.99 20.408 26.99C22.5419 26.99 22.857 26.9573 23.4385 26.6761C24.3631 26.2289 24.8722 25.3681 24.8737 24.2499C24.8753 23.054 24.2457 22.1376 23.1253 21.7047C22.8727 21.6071 22.7069 21.5987 20.6891 21.5814L18.7445 21.5647C18.6033 21.5634 18.4674 21.6188 18.3673 21.7183ZM22.9939 22.6783C23.336 22.8452 23.6305 23.1454 23.7915 23.4913C23.8825 23.6868 23.9036 23.8304 23.9033 24.2534C23.9028 24.902 23.7874 25.1942 23.3813 25.5758C22.9474 25.9835 22.8512 25.9996 20.8509 25.9996H19.1552V24.2503V22.501L20.926 22.5172L22.6969 22.5334L22.9939 22.6783Z" fill="#C4C4C4"/>
<path fill-rule="evenodd" clip-rule="evenodd" d="M16.8704 9.81278C16.7996 9.88315 16.7406 9.99453 16.7395 10.0604C16.7383 10.1261 16.7392 10.6189 16.7415 11.1554L16.7456 12.1308L14.8851 12.1457L13.0246 12.1607L12.8892 12.287L12.7539 12.4134V14.1153V15.8172L12.8892 15.9436C13.0192 16.0651 13.0574 16.0706 13.8861 16.0865L14.7477 16.1031V21.0478V25.9926L13.8861 26.0091C13.0574 26.025 13.0192 26.0305 12.8892 26.152L12.7539 26.2784V27.9803V29.6822L12.8892 29.8086L13.0246 29.935L14.8851 29.9499L16.7456 29.9648L16.7415 30.9403C16.7392 31.4767 16.7383 31.9695 16.7395 32.0353C16.7406 32.1011 16.7996 32.2125 16.8704 32.2829L16.9991 32.4108H18.1792C19.3506 32.4108 19.3603 32.41 19.5064 32.2851L19.6536 32.1594L19.6697 31.0602L19.6857 29.961H20.2075H20.7292V31.058C20.7292 32.1532 20.7295 32.1552 20.8581 32.2829L20.9868 32.4108H22.147C22.8423 32.4108 23.3476 32.3893 23.4081 32.3572C23.6334 32.2374 23.6675 32.0574 23.6675 30.9874V29.9758L24.3019 29.9389C25.7729 29.8534 26.488 29.5734 27.419 28.769C28.0993 28.1811 28.7363 27.1128 29.0125 26.0965C29.1388 25.6315 29.1521 25.4939 29.1549 24.6195C29.1577 23.7668 29.1437 23.6009 29.034 23.1861C28.6489 21.7289 28.1035 20.6351 26.8642 20.0332L26.4143 19.8147L26.6453 19.5842C27.8526 18.3801 28.1413 16.648 27.419 14.9427C26.8473 13.593 25.5548 12.5506 24.0759 12.2469L23.6675 12.163V11.1298C23.6675 10.0368 23.6343 9.85875 23.4081 9.7385C23.3476 9.70634 22.8423 9.68481 22.147 9.68481H20.9868L20.8581 9.81278C20.7295 9.94048 20.7292 9.94246 20.7292 11.0377V12.1346H20.2075H19.6857L19.6697 11.0354L19.6536 9.93621L19.5064 9.81054C19.3603 9.6857 19.3506 9.68481 18.1792 9.68481H16.9991L16.8704 9.81278ZM18.7354 11.7346V12.8462L18.8707 12.9726C19.0032 13.0964 19.0274 13.0993 20.0644 13.1157C20.7498 13.1266 21.1936 13.1116 21.3236 13.0733C21.6396 12.9802 21.6737 12.8408 21.6737 11.6411V10.623H22.1984H22.7231V11.7346C22.7231 13.1024 22.6967 13.0536 23.4745 13.1267C24.4019 13.2139 25.0505 13.5105 25.6926 14.1412C26.1752 14.6151 26.4787 15.0903 26.6918 15.7051C26.817 16.0667 26.8366 16.2053 26.8391 16.7476C26.8415 17.2683 26.8219 17.4306 26.7224 17.7167C26.5696 18.1556 26.3312 18.5299 25.9739 18.8918C25.8649 19.0021 25.7092 19.1351 25.5545 19.2548C25.2346 19.5026 24.7153 19.664 24.7181 20.0687C24.7201 20.3708 24.8531 20.4738 25.3501 20.5583C25.927 20.6563 26.2423 20.7596 26.6524 20.9849C27.5561 21.4814 28.0001 22.61 28.1863 23.7495C28.2853 24.3552 28.2532 25.179 28.1086 25.7465C27.7146 27.2926 26.9859 28.3238 25.6162 28.769C25.138 28.9244 25.0527 28.9351 24.0518 28.9653C23.0257 28.9964 22.9891 29.0012 22.8581 29.1234L22.7231 29.2495V30.361V31.4726H22.1984H21.6737V30.451C21.6737 29.263 21.6363 29.1144 21.3137 29.0194C21.1955 28.9846 20.7194 28.9696 20.0644 28.98C19.0274 28.9964 19.0032 28.9993 18.8707 29.1231L18.7354 29.2495V30.361V31.4726H18.2107H17.686V30.4545C17.686 29.2529 17.6519 29.1138 17.3361 29.0267C17.213 28.9928 16.4688 28.9711 15.4167 28.971L13.6984 28.9707V27.9803V26.99L14.4198 26.9896C15.3174 26.9893 15.5167 26.9413 15.6177 26.7013C15.7291 26.4365 15.7291 15.6592 15.6177 15.3943C15.5167 15.1543 15.3174 15.1064 14.4198 15.106L13.6984 15.1057V14.1153V13.125L15.4167 13.1247C16.4688 13.1245 17.213 13.1029 17.3361 13.069C17.6519 12.9819 17.686 12.8427 17.686 11.6411V10.623H18.2107H18.7354V11.7346ZM18.4993 15.1662C18.2085 15.325 18.2131 15.2901 18.2119 17.338L18.2109 19.0153C18.2108 19.1537 18.2659 19.2864 18.3641 19.3839C18.4623 19.4815 18.5952 19.5362 18.7336 19.5362H20.0224C21.6128 19.5362 21.9078 19.5027 22.3681 19.2694C23.2953 18.7995 23.752 17.5966 23.3848 16.5917C23.0803 15.7584 22.4754 15.2864 21.5519 15.1613C21.0012 15.0867 18.6379 15.0905 18.4993 15.1662ZM21.8595 16.2194C22.3445 16.4438 22.602 16.9006 22.552 17.4482C22.5175 17.8263 22.3534 18.1324 22.0869 18.3158C21.7169 18.5706 21.5738 18.5933 20.3226 18.5957L19.1552 18.598V17.347V16.0961L20.3751 16.0966C21.5445 16.097 21.606 16.1022 21.8595 16.2194ZM18.3673 21.7183C18.2671 21.8178 18.2107 21.9532 18.2107 22.0944V24.2529C18.2107 25.7849 18.23 26.6676 18.2648 26.7322C18.3961 26.976 18.5117 26.99 20.408 26.99C22.5419 26.99 22.857 26.9573 23.4385 26.6761C24.3631 26.2289 24.8722 25.3681 24.8737 24.2499C24.8753 23.054 24.2457 22.1376 23.1253 21.7047C22.8727 21.6071 22.7069 21.5987 20.6891 21.5814L18.7445 21.5647C18.6033 21.5634 18.4674 21.6188 18.3673 21.7183ZM22.9939 22.6783C23.336 22.8452 23.6305 23.1454 23.7915 23.4913C23.8825 23.6868 23.9036 23.8304 23.9033 24.2534C23.9028 24.902 23.7874 25.1942 23.3813 25.5758C22.9474 25.9835 22.8512 25.9996 20.8509 25.9996H19.1552V24.2503V22.501L20.926 22.5172L22.6969 22.5334L22.9939 22.6783Z" fill="url(#paint2_linear_6042_1014)"/>
<path fill-rule="evenodd" clip-rule="evenodd" d="M16.8704 9.81278C16.7996 9.88315 16.7406 9.99453 16.7395 10.0604C16.7383 10.1261 16.7392 10.6189 16.7415 11.1554L16.7456 12.1308L14.8851 12.1457L13.0246 12.1607L12.8892 12.287L12.7539 12.4134V14.1153V15.8172L12.8892 15.9436C13.0192 16.0651 13.0574 16.0706 13.8861 16.0865L14.7477 16.1031V21.0478V25.9926L13.8861 26.0091C13.0574 26.025 13.0192 26.0305 12.8892 26.152L12.7539 26.2784V27.9803V29.6822L12.8892 29.8086L13.0246 29.935L14.8851 29.9499L16.7456 29.9648L16.7415 30.9403C16.7392 31.4767 16.7383 31.9695 16.7395 32.0353C16.7406 32.1011 16.7996 32.2125 16.8704 32.2829L16.9991 32.4108H18.1792C19.3506 32.4108 19.3603 32.41 19.5064 32.2851L19.6536 32.1594L19.6697 31.0602L19.6857 29.961H20.2075H20.7292V31.058C20.7292 32.1532 20.7295 32.1552 20.8581 32.2829L20.9868 32.4108H22.147C22.8423 32.4108 23.3476 32.3893 23.4081 32.3572C23.6334 32.2374 23.6675 32.0574 23.6675 30.9874V29.9758L24.3019 29.9389C25.7729 29.8534 26.488 29.5734 27.419 28.769C28.0993 28.1811 28.7363 27.1128 29.0125 26.0965C29.1388 25.6315 29.1521 25.4939 29.1549 24.6195C29.1577 23.7668 29.1437 23.6009 29.034 23.1861C28.6489 21.7289 28.1035 20.6351 26.8642 20.0332L26.4143 19.8147L26.6453 19.5842C27.8526 18.3801 28.1413 16.648 27.419 14.9427C26.8473 13.593 25.5548 12.5506 24.0759 12.2469L23.6675 12.163V11.1298C23.6675 10.0368 23.6343 9.85875 23.4081 9.7385C23.3476 9.70634 22.8423 9.68481 22.147 9.68481H20.9868L20.8581 9.81278C20.7295 9.94048 20.7292 9.94246 20.7292 11.0377V12.1346H20.2075H19.6857L19.6697 11.0354L19.6536 9.93621L19.5064 9.81054C19.3603 9.6857 19.3506 9.68481 18.1792 9.68481H16.9991L16.8704 9.81278ZM18.7354 11.7346V12.8462L18.8707 12.9726C19.0032 13.0964 19.0274 13.0993 20.0644 13.1157C20.7498 13.1266 21.1936 13.1116 21.3236 13.0733C21.6396 12.9802 21.6737 12.8408 21.6737 11.6411V10.623H22.1984H22.7231V11.7346C22.7231 13.1024 22.6967 13.0536 23.4745 13.1267C24.4019 13.2139 25.0505 13.5105 25.6926 14.1412C26.1752 14.6151 26.4787 15.0903 26.6918 15.7051C26.817 16.0667 26.8366 16.2053 26.8391 16.7476C26.8415 17.2683 26.8219 17.4306 26.7224 17.7167C26.5696 18.1556 26.3312 18.5299 25.9739 18.8918C25.8649 19.0021 25.7092 19.1351 25.5545 19.2548C25.2346 19.5026 24.7153 19.664 24.7181 20.0687C24.7201 20.3708 24.8531 20.4738 25.3501 20.5583C25.927 20.6563 26.2423 20.7596 26.6524 20.9849C27.5561 21.4814 28.0001 22.61 28.1863 23.7495C28.2853 24.3552 28.2532 25.179 28.1086 25.7465C27.7146 27.2926 26.9859 28.3238 25.6162 28.769C25.138 28.9244 25.0527 28.9351 24.0518 28.9653C23.0257 28.9964 22.9891 29.0012 22.8581 29.1234L22.7231 29.2495V30.361V31.4726H22.1984H21.6737V30.451C21.6737 29.263 21.6363 29.1144 21.3137 29.0194C21.1955 28.9846 20.7194 28.9696 20.0644 28.98C19.0274 28.9964 19.0032 28.9993 18.8707 29.1231L18.7354 29.2495V30.361V31.4726H18.2107H17.686V30.4545C17.686 29.2529 17.6519 29.1138 17.3361 29.0267C17.213 28.9928 16.4688 28.9711 15.4167 28.971L13.6984 28.9707V27.9803V26.99L14.4198 26.9896C15.3174 26.9893 15.5167 26.9413 15.6177 26.7013C15.7291 26.4365 15.7291 15.6592 15.6177 15.3943C15.5167 15.1543 15.3174 15.1064 14.4198 15.106L13.6984 15.1057V14.1153V13.125L15.4167 13.1247C16.4688 13.1245 17.213 13.1029 17.3361 13.069C17.6519 12.9819 17.686 12.8427 17.686 11.6411V10.623H18.2107H18.7354V11.7346ZM18.4993 15.1662C18.2085 15.325 18.2131 15.2901 18.2119 17.338L18.2109 19.0153C18.2108 19.1537 18.2659 19.2864 18.3641 19.3839C18.4623 19.4815 18.5952 19.5362 18.7336 19.5362H20.0224C21.6128 19.5362 21.9078 19.5027 22.3681 19.2694C23.2953 18.7995 23.752 17.5966 23.3848 16.5917C23.0803 15.7584 22.4754 15.2864 21.5519 15.1613C21.0012 15.0867 18.6379 15.0905 18.4993 15.1662ZM21.8595 16.2194C22.3445 16.4438 22.602 16.9006 22.552 17.4482C22.5175 17.8263 22.3534 18.1324 22.0869 18.3158C21.7169 18.5706 21.5738 18.5933 20.3226 18.5957L19.1552 18.598V17.347V16.0961L20.3751 16.0966C21.5445 16.097 21.606 16.1022 21.8595 16.2194ZM18.3673 21.7183C18.2671 21.8178 18.2107 21.9532 18.2107 22.0944V24.2529C18.2107 25.7849 18.23 26.6676 18.2648 26.7322C18.3961 26.976 18.5117 26.99 20.408 26.99C22.5419 26.99 22.857 26.9573 23.4385 26.6761C24.3631 26.2289 24.8722 25.3681 24.8737 24.2499C24.8753 23.054 24.2457 22.1376 23.1253 21.7047C22.8727 21.6071 22.7069 21.5987 20.6891 21.5814L18.7445 21.5647C18.6033 21.5634 18.4674 21.6188 18.3673 21.7183ZM22.9939 22.6783C23.336 22.8452 23.6305 23.1454 23.7915 23.4913C23.8825 23.6868 23.9036 23.8304 23.9033 24.2534C23.9028 24.902 23.7874 25.1942 23.3813 25.5758C22.9474 25.9835 22.8512 25.9996 20.8509 25.9996H19.1552V24.2503V22.501L20.926 22.5172L22.6969 22.5334L22.9939 22.6783Z" stroke="white" stroke-width="0.428793" mask="url(#path-3-outside-1_6042_1014)"/>
<defs>
<linearGradient id="paint0_linear_6042_1014" x1="5.75299" y1="7.1991" x2="37.3473" y2="36.4985" gradientUnits="userSpaceOnUse">
<stop stop-color="#00FFA3" stop-opacity="0.6"/>
<stop offset="1" stop-color="#4B48F1"/>
</linearGradient>
<linearGradient id="paint1_linear_6042_1014" x1="15.2321" y1="13.888" x2="30.3977" y2="24.0853" gradientUnits="userSpaceOnUse">
<stop stop-color="#00FFA3" stop-opacity="0.6"/>
<stop offset="1" stop-color="#4B48F1"/>
</linearGradient>
<linearGradient id="paint2_linear_6042_1014" x1="15.0005" y1="13.5802" x2="30.8496" y2="24.1876" gradientUnits="userSpaceOnUse">
<stop stop-color="#00FFA3" stop-opacity="0.6"/>
<stop offset="1" stop-color="#4B48F1"/>
</linearGradient>
</defs>
</svg>
